<?xml version="1.0" standalone="no"?>
<!DOCTYPE svg PUBLIC "-//W3C//DTD SVG 20010904//EN"
 "http://www.w3.org/TR/2001/REC-SVG-20010904/DTD/svg10.dtd">
<svg version="1.0" xmlns="http://www.w3.org/2000/svg"
 width="512.000000pt" height="512.000000pt" viewBox="0 0 512.000000 512.000000"
 preserveAspectRatio="xMidYMid meet">

<g transform="translate(0.000000,512.000000) scale(0.100000,-0.100000)"
fill="#000000" stroke="none">
<path d="M190 5111 c-69 -22 -130 -73 -166 -141 -18 -34 -19 -83 -19 -1215 l0
-1180 21 -40 c30 -56 71 -94 129 -121 50 -24 53 -24 418 -24 l367 0 0 -837 c0
-821 1 -839 21 -883 25 -55 71 -105 124 -133 l40 -22 912 -3 912 -3 34 -47
c48 -65 178 -189 257 -244 246 -174 562 -248 860 -204 255 39 488 156 669 337
515 515 452 1365 -133 1801 -154 115 -387 208 -558 224 l-68 7 -2 731 -3 731
-27 45 c-14 25 -172 190 -350 367 -306 304 -326 322 -377 337 -47 14 -132 16
-628 16 l-573 0 0 138 c0 96 -5 154 -16 191 -18 61 -69 123 -128 154 l-41 22
-825 2 c-454 1 -836 -2 -850 -6z m1657 -185 l28 -24 0 -1147 0 -1147 -28 -24
-28 -24 -795 0 -796 0 -29 29 -29 29 0 1137 0 1137 29 29 29 29 796 0 795 0
28 -24z m1313 -728 c0 -233 1 -245 24 -293 12 -28 40 -65 61 -84 71 -62 86
-65 353 -69 l242 -4 0 -683 0 -682 -67 -7 c-168 -15 -421 -117 -563 -225 -143
-108 -287 -283 -361 -438 -82 -172 -113 -317 -113 -523 0 -134 4 -170 27 -262
14 -59 38 -135 52 -169 14 -34 25 -66 25 -71 0 -5 -378 -7 -841 -6 l-841 3
-24 28 -24 28 0 825 0 824 368 0 c363 0 367 0 417 24 28 12 67 41 87 64 70 78
68 41 68 1054 l0 908 555 0 555 0 0 -242z m383 -266 l-168 -3 -22 26 c-22 25
-23 34 -23 193 l0 167 190 -190 190 -190 -167 -3z m592 -1736 c302 -65 563
-264 699 -533 200 -393 134 -853 -168 -1170 -234 -248 -569 -362 -901 -308
-426 69 -760 393 -846 820 -17 86 -18 299 0 380 66 314 252 566 525 711 102
54 197 87 297 104 41 6 81 13 89 15 33 8 239 -5 305 -19z"/>
<path d="M445 4761 c-48 -22 -69 -44 -90 -94 -13 -30 -15 -95 -15 -404 0 -421
2 -427 81 -480 l43 -28 555 0 c628 0 606 -3 659 78 l27 41 3 367 c2 235 -1
383 -8 407 -14 53 -45 91 -94 113 -38 17 -77 19 -581 19 -503 0 -543 -2 -580
-19z m1093 -493 l2 -338 -515 0 -515 0 0 340 0 340 513 -2 512 -3 3 -337z"/>
<path d="M370 3560 c-27 -27 -34 -64 -18 -96 21 -46 51 -55 170 -52 97 3 109
5 132 27 35 33 35 83 1 116 -23 24 -30 25 -145 25 -106 0 -122 -2 -140 -20z"/>
<path d="M888 3566 c-29 -21 -41 -65 -27 -98 18 -44 56 -58 157 -58 137 0 172
19 172 93 0 22 -8 41 -23 55 -21 20 -34 22 -143 22 -82 -1 -124 -5 -136 -14z"/>
<path d="M1392 3557 c-23 -25 -29 -75 -12 -107 15 -28 64 -40 161 -40 100 0
134 12 155 52 17 33 11 63 -19 96 -19 20 -29 22 -142 22 -114 0 -123 -1 -143
-23z"/>
<path d="M372 3220 c-46 -43 -37 -109 18 -137 32 -16 214 -17 243 -1 53 28 64
92 22 133 -23 24 -30 25 -143 25 -105 0 -121 -2 -140 -20z"/>
<path d="M880 3215 c-32 -34 -32 -87 -2 -118 20 -19 35 -22 123 -25 55 -2 111
-1 125 2 66 17 89 105 38 145 -24 19 -40 21 -144 21 -112 0 -117 -1 -140 -25z"/>
<path d="M1396 3219 c-19 -15 -26 -30 -26 -54 0 -77 31 -95 164 -95 112 0 140
9 161 50 18 35 13 64 -18 98 -19 20 -29 22 -137 22 -104 0 -120 -2 -144 -21z"/>
<path d="M366 2869 c-34 -40 -33 -74 3 -110 29 -28 32 -29 136 -29 110 0 156
12 169 45 13 35 6 76 -19 100 -23 24 -30 25 -144 25 l-119 0 -26 -31z"/>
<path d="M884 2876 c-39 -33 -39 -89 0 -123 28 -24 34 -24 148 -21 112 3 121
5 139 27 27 33 25 86 -6 116 -23 24 -30 25 -139 25 -106 0 -117 -2 -142 -24z"/>
<path d="M1395 2875 c-31 -30 -33 -83 -6 -116 18 -22 27 -24 139 -27 114 -3
120 -3 148 21 39 34 39 90 0 123 -25 22 -36 24 -142 24 -109 0 -116 -1 -139
-25z"/>
<path d="M2333 3388 c-29 -32 -34 -53 -21 -88 21 -61 11 -60 633 -60 411 0
572 3 588 12 34 17 46 39 47 80 0 28 -6 41 -26 57 -26 21 -35 21 -614 21
l-587 0 -20 -22z"/>
<path d="M2349 2975 c-29 -16 -52 -66 -42 -93 3 -9 15 -27 26 -39 l20 -23 592
0 592 0 21 23 c31 33 29 87 -4 118 l-26 24 -576 2 c-488 2 -581 0 -603 -12z"/>
<path d="M2334 2536 c-21 -18 -28 -32 -28 -61 0 -29 7 -43 28 -61 l27 -24 585
0 585 0 24 25 c17 16 25 35 25 60 0 25 -8 44 -25 60 l-24 25 -585 0 -585 0
-27 -24z"/>
<path d="M1392 2107 c-44 -46 -21 -127 40 -142 13 -3 299 -4 636 -3 l614 3 24
28 c31 37 31 81 -1 112 l-24 25 -634 0 -634 0 -21 -23z"/>
<path d="M1414 1696 c-51 -22 -62 -95 -21 -134 l23 -22 548 0 547 0 24 25 c32
31 32 75 1 112 l-24 28 -534 2 c-432 2 -539 0 -564 -11z"/>
<path d="M1395 1255 c-17 -16 -25 -35 -25 -60 0 -25 8 -44 25 -60 l24 -25 501
0 501 0 24 25 c17 16 25 35 25 60 0 25 -8 44 -25 60 l-24 25 -501 0 -501 0
-24 -25z"/>
<path d="M3869 2021 c-16 -16 -29 -38 -29 -48 0 -14 -12 -22 -43 -30 -24 -7
-73 -31 -108 -55 -291 -196 -234 -637 99 -754 l52 -19 0 -253 0 -253 -42 23
c-69 38 -126 132 -127 211 -1 29 -9 46 -30 68 -36 36 -70 37 -110 3 -27 -22
-31 -32 -31 -74 0 -107 66 -242 152 -313 47 -39 142 -87 171 -87 11 0 17 -8
17 -21 0 -30 53 -79 85 -79 32 0 85 49 85 79 0 14 6 21 19 21 10 0 50 16 89
35 234 117 305 420 148 632 -49 68 -139 133 -210 153 l-46 13 0 248 c0 187 3
249 12 249 7 0 29 -12 49 -26 62 -43 109 -129 109 -201 0 -40 45 -93 80 -93
55 0 89 38 90 101 0 105 -66 242 -152 312 -47 39 -142 87 -170 87 -12 0 -18 8
-18 21 0 30 -53 79 -85 79 -16 0 -38 -12 -56 -29z m-29 -486 c0 -129 -2 -235
-5 -235 -16 0 -64 32 -92 62 -108 113 -93 282 33 378 22 16 45 30 52 30 9 0
12 -54 12 -235z m209 -460 c42 -21 106 -98 119 -143 25 -81 8 -169 -44 -237
-26 -35 -81 -75 -103 -75 -8 0 -11 67 -11 235 0 129 2 235 5 235 4 0 19 -7 34
-15z"/>
</g>
</svg>
